<?xml version="1.0" encoding="utf-8"?>
<!-- Generator: Adobe Illustrator 19.0.0, SVG Export Plug-In . SVG Version: 6.00 Build 0)  -->
<svg version="1.1"
	 id="Layer_1" xmlns:inkscape="http://www.inkscape.org/namespaces/inkscape" xmlns:sodipodi="http://sodipodi.sourceforge.net/DTD/sodipodi-0.dtd" xmlns:svg="http://www.w3.org/2000/svg" inkscape:export-ydpi="34.675816" inkscape:export-xdpi="34.675816" inkscape:export-filename="fiverr-logo3.svg" inkscape:version="1.2.2 (732a01da63, 2022-12-09)" sodipodi:docname="fiverr-logo2.svg"
	 xmlns="http://www.w3.org/2000/svg" xmlns:xlink="http://www.w3.org/1999/xlink" x="0px" y="0px" viewBox="-3 298.4 603.5 196.6"
	 style="enable-background:new -3 298.4 603.5 196.6;" xml:space="preserve">
<style type="text/css">
	.st0{fill:#ED1C24;}
	.st1{fill:none;}
	.st2{fill:#ED1C24;stroke:#ED1C24;stroke-miterlimit:10;}
</style>
<g transform="matrix(1.0898657,0,0,1.1708895,-46.646252,-261.22504)" inkscape:label="logo" inkscape:export-ydpi="34.675816" inkscape:export-xdpi="34.675816" inkscape:export-filename="fiverr-logo2.svg">
	<g>
		<g>
			<path class="st0" d="M395.5,564c-2.1-10.1-8-22-28.8-34.1c-20.8-12.1-51,0-51,0S290,541,284.4,572.5
				c-5.6,31.5,18.1,53.9,18.1,53.9s30.6,24.1,58.8,14.1c28.2-10,34.1-30.5,34.1-30.5l-30.7-8.2c-0.4-0.1-0.7,0.1-0.8,0.5
				c-0.4,2.3-3.1,9.8-20.9,9.8c-21-0.1-23.6-20.8-23.6-20.8h76C395.5,591,397.5,574.1,395.5,564L395.5,564z M320.4,569.4
				c0,0,5.1-16.7,21.6-17.4c16.5-0.6,19.1,17.4,19.1,17.4H320.4z"/>
			<path class="st1" d="M339.3,552.1c-16.5,0.6-21.6,17.4-21.6,17.4h40.7C358.4,569.4,355.8,551.5,339.3,552.1z"/>
		</g>
		<path class="st0" d="M100.3,560.2v81.1H64.9v-81.1H42.7v-33.3h22.2v-10.1c0-6.4,1.6-12.7,4.9-18.2c5.3-8.9,15.5-19.8,30.5-20.6
			c16.1-0.9,36.6,0,36.6,0v30.9l-27-0.2c0,0-7.9,1.7-7.7,7.6c0.2,5.9,0.5,10.6,0.5,10.6h70.5l0,114.5h-35.8v-81.8h-36.9L100.3,560.2
			z"/>
		<path class="st0" d="M441.1,641.3h-37.7V526.9H441v16.3c0,0,7.8-14.1,17.3-16.3h54.5v17.2c0,0,5.8-16.9,17.5-17.2h22.5v33.3h-28
			c0,0-9.3,1.9-10.5,10.2s-0.6,71-0.6,71H478v-81.1h-26c0,0-9.9,4.6-9.9,10.2C442.1,576.1,441.1,641.3,441.1,641.3L441.1,641.3z"/>
	</g>
	<ellipse inkscape:label="dot" class="st2" cx="570.7" cy="621.6" rx="23.1" ry="24.8">
	</ellipse>
</g>
<polygon class="st0" points="284.8,489.7 240.5,489.7 145.6,355.7 190.5,355.7 "/>
<polygon class="st0" points="145.6,489.7 189.9,489.7 284.8,355.7 239.9,355.7 "/>
</svg>
