<?xml version="1.0" encoding="utf-8"?>
<!-- Generator: Adobe Illustrator 19.0.0, SVG Export Plug-In . SVG Version: 6.00 Build 0)  -->
<svg version="1.1"
	 id="Layer_1" xmlns:inkscape="http://www.inkscape.org/namespaces/inkscape" xmlns:sodipodi="http://sodipodi.sourceforge.net/DTD/sodipodi-0.dtd" xmlns:svg="http://www.w3.org/2000/svg" inkscape:export-ydpi="34.675816" inkscape:export-xdpi="34.675816" inkscape:export-filename="fiverr-logo3.svg" inkscape:version="1.2.2 (732a01da63, 2022-12-09)" sodipodi:docname="fiverr-logo2.svg"
	 xmlns="http://www.w3.org/2000/svg" xmlns:xlink="http://www.w3.org/1999/xlink" x="0px" y="0px" viewBox="-3 298.4 603.5 196.6"
	 style="enable-background:new -3 298.4 603.5 196.6;" xml:space="preserve">
<style type="text/css">
	.st0{fill:#ED1C24;}
	.st1{fill:none;}
	.st2{fill:#ED1C24;stroke:#ED1C24;stroke-miterlimit:10;}
</style>
<g transform="matrix(1.0898657,0,0,1.1708895,-46.646252,-261.22504)" inkscape:label="logo" inkscape:export-ydpi="34.675816" inkscape:export-xdpi="34.675816" inkscape:export-filename="fiverr-logo2.svg">
	<g>
		<g>
			<path class="st0" d="M392.8,564.9c-2.1-10.1-8-22-28.8-34.1c-20.8-12.1-51,0-51,0s-25.7,11.1-31.3,42.6
				c-5.6,31.5,18.1,53.9,18.1,53.9s30.6,24.1,58.8,14.1c28.2-10,34.1-30.5,34.1-30.5l-30.7-8.2c-0.4-0.1-0.7,0.1-0.8,0.5
				c-0.4,2.3-3.1,9.8-20.9,9.8c-21-0.1-23.6-20.8-23.6-20.8h76C392.8,591.9,394.8,575,392.8,564.9L392.8,564.9z M317.7,570.3
				c0,0,5.1-16.7,21.6-17.4c16.5-0.6,19.1,17.4,19.1,17.4H317.7z"/>
			<path class="st1" d="M339.3,553c-16.5,0.6-21.6,17.4-21.6,17.4h40.7C358.4,570.3,355.8,552.4,339.3,553z"/>
		</g>
		<path class="st2" d="M100.3,560.2v81.1H64.9v-81.1H42.7v-33.3h22.2v-10.1c0-6.4,1.6-12.7,4.9-18.2c5.3-8.9,15.5-19.8,30.5-20.6
			c16.1-0.9,36.6,0,36.6,0v30.9l-27-0.2c0,0-7.9,1.7-7.7,7.6c0.2,5.9,0,10,0,10h71v115.1h-35.8v-81.8h-36.9L100.3,560.2z"/>
		<path class="st2" d="M441.1,641.3h-37.7V528.4H441v14.8c0,0,6.5-12.6,16-14.8c9.6-2.2,55.8,0,55.8,0v15.7c0,0,5.9-15.4,17.6-15.7
			c11.7-0.3,22.4,0,22.4,0v31.8h-28c0,0-9.3,1.9-10.5,10.2c-1.2,8.3-0.6,71-0.6,71H478v-81.1h-26c0,0-9.9,4.6-9.9,10.2
			C442.1,576.1,441.1,641.3,441.1,641.3L441.1,641.3z"/>
	</g>
	<ellipse inkscape:label="dot" class="st2" cx="571.6" cy="623.3" rx="23.1" ry="24.8">
	</ellipse>
</g>
<polygon class="st0" points="142.9,373.1 167.8,352.4 271.2,470.1 248,489.7 "/>
<polygon class="st0" points="271.4,375.1 246.5,354.3 143.1,472.1 166.3,491.7 "/>
</svg>
